<?xml version="1.0" encoding="iso-8859-1"?>
<!-- Generator: Adobe Illustrator 16.0.0, SVG Export Plug-In . SVG Version: 6.00 Build 0)  -->
<!DOCTYPE svg PUBLIC "-//W3C//DTD SVG 1.1//EN" "http://www.w3.org/Graphics/SVG/1.1/DTD/svg11.dtd">
<svg version="1.1" id="Capa_1" xmlns="http://www.w3.org/2000/svg" xmlns:xlink="http://www.w3.org/1999/xlink" x="0px" y="0px"
	 width="64px" height="64px" viewBox="0 0 64 64" style="enable-background:new 0 0 64 64;" xml:space="preserve">
<g>
	<g>
		<g id="circle_copy_2">
			<g>
				<path d="M43.8,36.596l-9.389-5.776C33.907,30.484,33,30.469,33,30.469s0,0.218,0,0.508v3.988c0,0.736-0.404,1.41-1.057,1.76
					c-0.65,0.346-1.439,0.31-2.053-0.101l-9.775-6.499C21,37.723,27.422,40,33,40v4c0,0.604,0,1.656,0,1.656
					s0.907,0.046,1.411-0.287l9.389-6.184c0.457-0.303,0.731-0.688,0.731-1.232C44.531,37.409,44.257,36.898,43.8,36.596z M32,0
					C14.327,0,0,14.327,0,32s14.327,32,32,32s32-14.327,32-32S49.673,0,32,0z M46.109,39.672l-12,7.979
					c-0.613,0.406-1.402,0.445-2.053,0.1C31.405,47.404,31,46.727,31,45.99v-3.989c-6.628,0-12-5.356-12-11.966
					c0-0.214,0.016-0.423,0.026-0.634l-1.136-0.755c-0.556-0.37-0.89-0.993-0.89-1.659c0-0.667,0.334-1.289,0.891-1.659l12-7.978
					c0.613-0.407,1.402-0.445,2.053-0.099C32.596,17.598,33,18.274,33,19.01v3.989c6.628,0,12,5.357,12,11.966l-1.132-0.376
					C42.861,27.21,36.512,25,31,25v-4c0-0.603,0-1.656,0-1.656s-0.907-0.046-1.41,0.287l-9.39,6.183
					c-0.456,0.304-0.731,0.688-0.731,1.233s0.275,1.055,0.731,1.357l9.39,5.776c0.503,0.336,1.41,0.352,1.41,0.352s0-0.93,0-1.531
					v-4c0.099,0,0.19,0.006,0.287,0.007c0.183-0.302,0.445-0.557,0.77-0.73c0.65-0.347,1.439-0.31,2.053,0.1l12,7.979
					C46.666,36.725,47,37.348,47,38.014S46.666,39.302,46.109,39.672z"/>
			</g>
		</g>
	</g>
</g>
<g>
</g>
<g>
</g>
<g>
</g>
<g>
</g>
<g>
</g>
<g>
</g>
<g>
</g>
<g>
</g>
<g>
</g>
<g>
</g>
<g>
</g>
<g>
</g>
<g>
</g>
<g>
</g>
<g>
</g>
</svg>
